<?xml version="1.0" encoding="iso-8859-1"?>
<!-- Uploaded to: SVG Repo, www.svgrepo.com, Generator: SVG Repo Mixer Tools -->
<svg fill="rgb(205, 143, 27)" version="1.1" id="Layer_1" xmlns="http://www.w3.org/2000/svg" xmlns:xlink="http://www.w3.org/1999/xlink" 
	 viewBox="0 0 408.54 408.54" xml:space="preserve">
<g>
	<g>
		<path d="M361.216,96.366c0-8.274-2.063-14.694-6.18-19.246c-4.116-4.552-9.943-6.83-17.48-6.83
			c-7.649,0-13.542,2.243-17.669,6.728c-4.122,4.49-6.19,10.916-6.19,19.287s2.053,14.822,6.159,19.374
			c4.101,4.541,9.979,6.815,17.638,6.815c7.557,0,13.404-2.289,17.531-6.866C359.148,111.04,361.216,104.625,361.216,96.366z
			 M348.641,110.625c-2.509,3.19-6.226,4.782-11.146,4.782c-4.946,0-8.683-1.618-11.203-4.838
			c-2.519-3.226-3.784-7.967-3.784-14.208c0-6.216,1.27-10.936,3.804-14.152c2.524-3.215,6.282-4.818,11.249-4.818
			c4.931,0,8.632,1.603,11.121,4.818c2.488,3.215,3.722,7.931,3.722,14.152C352.404,102.679,351.15,107.43,348.641,110.625z"/>
		<polygon points="351.785,286.497 351.785,286.497 282.685,286.497 282.685,312.829 351.785,312.829 		"/>
		<polygon points="271.631,71.083 271.626,71.083 263.306,71.083 263.306,91.825 239.928,91.825 239.928,71.083 231.644,71.083 
			231.644,121.792 239.928,121.792 239.928,98.936 263.306,98.936 263.306,121.792 271.631,121.792 		"/>
		<polygon points="34.56,50.429 373.985,50.429 373.985,313.065 387.389,313.065 387.389,36.36 21.156,36.36 21.156,313.065 
			34.56,313.065 		"/>
		<path d="M294.364,123.63c-0.814,1.014-2.545,2.913-5.202,5.688l-9.288,9.39v6.758h27.607v-8.484h-14.387v-0.256
			c4.209-3.784,6.963-6.349,8.259-7.701c1.29-1.357,2.324-2.637,3.103-3.86c0.783-1.224,1.362-2.468,1.736-3.738
			c0.374-1.265,0.558-2.642,0.558-4.137c0-1.992-0.532-3.789-1.597-5.391c-1.065-1.603-2.565-2.842-4.5-3.712
			c-1.93-0.865-4.132-1.295-6.589-1.295c-1.961,0-3.722,0.195-5.294,0.594s-3.026,0.973-4.357,1.725
			c-1.336,0.758-2.985,2.007-4.941,3.763l5.642,6.605c1.546-1.336,2.924-2.345,4.147-3.031c1.224-0.681,2.437-1.029,3.63-1.029
			c1.157,0,2.063,0.287,2.703,0.855c0.64,0.573,0.963,1.357,0.963,2.345c0,0.799-0.159,1.567-0.476,2.289
			C295.752,121.746,295.183,122.616,294.364,123.63z"/>
		<path d="M229.391,228.902c0,11.535,9.344,20.89,20.874,20.89c11.53,0,20.874-9.349,20.874-20.89
			c0-11.541-9.344-20.89-20.874-20.89C238.735,208.013,229.391,217.367,229.391,228.902z M242.606,226.88
			c-2.97,0-5.376-2.406-5.376-5.381c0-2.97,2.406-5.381,5.376-5.381s5.376,2.406,5.376,5.381
			C247.982,224.474,245.576,226.88,242.606,226.88z"/>
		<path d="M135.409,284.675c20.623,0,37.345-16.763,37.345-37.437c0-20.68-16.717-37.437-37.345-37.437
			c-20.623,0-37.345,16.763-37.345,37.437S114.785,284.675,135.409,284.675z M120.095,225.139c4.511,0,8.166,3.666,8.166,8.187
			c0,4.521-3.656,8.187-8.166,8.187c-4.511,0-8.166-3.666-8.166-8.187C111.928,228.805,115.584,225.139,120.095,225.139z"/>
		<rect x="0" y="326.228" width="408.54" height="45.952"/>
		<path d="M82.263,116.744c-11.807,0-21.376,9.349-21.376,20.89c0,11.535,9.569,20.89,21.376,20.89
			c11.807,0,21.376-9.349,21.376-20.89C103.639,126.093,94.07,116.744,82.263,116.744z M74.424,135.611
			c-3.041,0-5.504-2.406-5.504-5.381c0-2.97,2.468-5.381,5.504-5.381c3.041,0,5.509,2.406,5.509,5.381
			C79.933,133.199,77.466,135.611,74.424,135.611z"/>
		<polygon points="179.86,248.148 224.742,241.851 222.884,228.58 178.002,234.877 		"/>
		<rect x="80.246" y="178.454" transform="matrix(0.4347 0.9006 -0.9006 0.4347 226.4565 9.5412)" width="50.764" height="13.401"/>
	</g>
</g>
</svg>